HIERARCHY
ROOT RootJoint
{
    OFFSET   0.000000   0.000000   0.000000
    CHANNELS 6 Xposition Yposition Zposition Xrotation Yrotation Zrotation
    JOINT pelvis_lowerback
    {
        OFFSET   0.000000   0.093605   0.000000
        CHANNELS 3 Xrotation Yrotation Zrotation
        JOINT lowerback_torso
        {
            OFFSET   0.000000   0.100000   0.000000
            CHANNELS 3 Xrotation Yrotation Zrotation
            JOINT torso_head
            {
                OFFSET   0.000000   0.282350   0.000000
                CHANNELS 3 Xrotation Yrotation Zrotation
                End Site
                {
                    OFFSET   0.000000   0.192650   0.000000
                }
            }
            JOINT rTorso_Clavicle
            {
                OFFSET  -0.001000   0.157500   0.000000
                CHANNELS 3 Xrotation Yrotation Zrotation
                JOINT rShoulder
                {
                    OFFSET  -0.117647   0.000000   0.000000
                    CHANNELS 3 Xrotation Yrotation Zrotation
                    JOINT rElbow
                    {
                        OFFSET  -0.245000   0.000000   0.000000
                        CHANNELS 3 Xrotation Yrotation Zrotation
                        JOINT rWrist
                        {
                            OFFSET  -0.240000   0.000000   0.000000
                            CHANNELS 3 Xrotation Yrotation Zrotation
                            End Site
                            {
                                OFFSET  -0.116353  -0.002500   0.000000
                            }
                        }
                    }
                }
            }
            JOINT lTorso_Clavicle
            {
                OFFSET   0.001000   0.157500   0.000000
                CHANNELS 3 Xrotation Yrotation Zrotation
                JOINT lShoulder
                {
                    OFFSET   0.117647   0.000000   0.000000
                    CHANNELS 3 Xrotation Yrotation Zrotation
                    JOINT lElbow
                    {
                        OFFSET   0.245000   0.000000   0.000000
                        CHANNELS 3 Xrotation Yrotation Zrotation
                        JOINT lWrist
                        {
                            OFFSET   0.240000   0.000000   0.000000
                            CHANNELS 3 Xrotation Yrotation Zrotation
                            End Site
                            {
                                OFFSET   0.116353  -0.002500   0.000000
                            }
                        }
                    }
                }
            }
        }
    }
    JOINT rHip
    {
        OFFSET  -0.100000  -0.051395   0.000000
        CHANNELS 3 Xrotation Yrotation Zrotation
        JOINT rKnee
        {
            OFFSET   0.000000  -0.410000   0.000000
            CHANNELS 3 Xrotation Yrotation Zrotation
            JOINT rAnkle
            {
                OFFSET   0.000000  -0.390000   0.000000
                CHANNELS 3 Xrotation Yrotation Zrotation
                JOINT rToeJoint
                {
                    OFFSET   0.000000  -0.050000   0.130000
                    CHANNELS 3 Xrotation Yrotation Zrotation
                    End Site
                    {
                        OFFSET  -0.010000   0.002000   0.060000
                    }
                }
            }
        }
    }
    JOINT lHip
    {
        OFFSET   0.100000  -0.051395   0.000000
        CHANNELS 3 Xrotation Yrotation Zrotation
        JOINT lKnee
        {
            OFFSET   0.000000  -0.410000   0.000000
            CHANNELS 3 Xrotation Yrotation Zrotation
            JOINT lAnkle
            {
                OFFSET   0.000000  -0.390000   0.000000
                CHANNELS 3 Xrotation Yrotation Zrotation
                JOINT lToeJoint
                {
                    OFFSET   0.000000  -0.050000   0.130000
                    CHANNELS 3 Xrotation Yrotation Zrotation
                    End Site
                    {
                        OFFSET   0.010000   0.002000   0.060000
                    }
                }
            }
        }
    }
}
MOTION
Frames: 15
Frame Time:   0.008333
 -2.382153   0.925320   4.128958   9.872125  19.640858  -0.920527  10.921994   1.631908  -2.398592   7.164435  -0.705192  -0.841930  -4.120637  -1.463159  -1.183568   5.787993  -0.632159   4.631952  13.925029   9.837921  54.601171  -0.000043  16.178807  -0.000672   4.705030   2.826701   4.613294   5.287796   3.835902  -3.453935  10.734958  -0.350106 -46.415029   0.000244 -22.323266  -0.000546   3.461726  -3.500251  -0.033724  -8.799947 -12.977539  -6.984485  26.259578   0.010809   0.026443  -4.945052 -18.382194   3.665745 -15.177280  -0.000145  -0.002180  -2.694761   1.299459   3.912049   0.758997  -0.000208   0.000116   2.046962   3.976051   1.822844 -14.711000   0.005378  -0.013671
 -2.382944   0.926888   4.131110  10.103372  19.975383  -1.089100  11.211525   1.611014  -2.400269   7.212518  -0.651592  -0.712505  -4.154162  -1.574270  -1.153613   5.848033  -0.654725   4.596282  13.905494   9.670620  54.495692  -0.000030  16.172512  -0.000514   4.629941   2.840162   4.719058   5.353531   3.805806  -3.470500  10.693044  -0.209555 -46.429438   0.000118 -22.268046  -0.000451   3.320725  -3.457563  -0.012981  -9.604144 -12.799592  -7.033644  27.469569   0.010869   0.025415  -5.142780 -18.309323   3.671387 -14.091694   0.000758   0.003281  -3.102956   1.302789   4.080005   1.054625  -0.000385   0.001022   2.835246   3.782441   1.604215 -15.985556   0.004087  -0.012600
 -2.383776   0.928464   4.133225  10.287819  20.225858  -1.251460  11.531908   1.596049  -2.375420   7.284546  -0.591962  -0.579186  -4.178111  -1.678822  -1.117354   5.880615  -0.652686   4.542522  13.869680   9.521950  54.371636  -0.000022  16.170665  -0.000405   4.555160   2.856897   4.772134   5.403694   3.757864  -3.509942  10.643829  -0.092453 -46.460092   0.000027 -22.219199  -0.000406   3.186559  -3.410926  -0.025264 -10.425900 -12.615434  -7.110490  28.579134   0.010715   0.023342  -5.336112 -18.239960   3.674706 -13.137218   0.001392   0.006246  -3.476312   1.297598   4.272420   1.386291  -0.000585   0.001602   3.610838   3.589830   1.403955 -17.306440   0.003103  -0.010826
 -2.384654   0.929988   4.135416  10.435113  20.414488  -1.403769  11.853594   1.581065  -2.337702   7.370619  -0.533996  -0.446603  -4.193559  -1.776818  -1.079024   5.902316  -0.642316   4.482692  13.829309   9.386711  54.246259  -0.000018  16.171543  -0.000327   4.482974   2.883081   4.797590   5.445981   3.705915  -3.555301  10.593810   0.010868 -46.495788  -0.000030 -22.176238  -0.000379   3.058859  -3.377064  -0.057777 -11.247862 -12.432636  -7.211829  29.591873   0.010376   0.020759  -5.517849 -18.175368   3.677875 -12.265723   0.001819   0.007697  -3.795013   1.291417   4.487065   1.744692  -0.000821   0.001936   4.360303   3.405899   1.224231 -18.676504   0.002533  -0.008782
 -2.385580   0.931424   4.137720  10.550430  20.554916  -1.546305  12.166796   1.563626  -2.291462   7.462035  -0.481309  -0.315758  -4.204265  -1.868617  -1.041088   5.920251  -0.630343   4.422335  13.789655   9.261395  54.125451  -0.000014  16.173189  -0.000266   4.413484   2.913162   4.811862   5.483117   3.653843  -3.599573  10.545098   0.104561 -46.531394  -0.000062 -22.137680  -0.000360   2.936949  -3.353151  -0.098282 -12.060781 -12.252155  -7.331557  30.518459   0.009903   0.018032  -5.688330 -18.115222   3.680936 -11.468289   0.002072   0.008181  -4.065453   1.278491   4.716638   2.099349  -0.001044   0.002031   5.077234   3.223314   1.060620 -20.034411   0.002139  -0.006535
 -2.386559   0.932759   4.140161  10.636607  20.659359  -1.677573  12.466655   1.541359  -2.240848   7.554431  -0.436487  -0.186818  -4.212229  -1.954615  -1.004464   5.937712  -0.619770   4.365436  13.753006   9.144134  54.012150  -0.000011  16.174516  -0.000216   4.346860   2.942013   4.823224   5.515854   3.602412  -3.639717  10.497978   0.190372 -46.563960  -0.000075 -22.102699  -0.000344   2.820420  -3.335621  -0.138862 -12.856587 -12.074703  -7.465663  31.367715   0.009341   0.015389  -5.848107 -18.059220   3.683870 -10.738229   0.002185   0.008075  -4.291792   1.263787   4.956209   2.452388  -0.001251   0.001990   5.755586   3.047071   0.910900 -21.367320   0.001886  -0.004392
 -2.387593   0.933987   4.142751  10.696848  20.736985  -1.796959  12.750102   1.513142  -2.188100   7.644757  -0.400867  -0.060011  -4.218587  -2.035177  -0.969601   5.956201  -0.611969   4.313939  13.720287   9.033843  53.907706  -0.000009  16.175065  -0.000174   4.283141   2.967065   4.836155   5.544328   3.551536  -3.674563  10.452179   0.269034 -46.592280  -0.000075 -22.070969  -0.000327   2.708967  -3.323166  -0.175470 -13.630365 -11.900699  -7.610355  32.147310   0.008724   0.012954  -5.997765 -18.007071   3.686660 -10.069693   0.002187   0.007627  -4.477489   1.249456   5.202599   2.803132  -0.001442   0.001875   6.394537   2.878574   0.773710 -22.669327   0.001753  -0.002482
 -2.388626   0.934985   4.145084  10.825774  20.705918  -1.965289  13.040718   1.533083  -2.089943   7.643431  -0.361023   0.082630  -4.225720  -2.102891  -0.943303   5.931510  -0.605804   4.294565  13.553495   8.797777  53.722676   0.000051  16.057013  -0.000179   4.211883   2.967822   4.881944   5.543428   3.449150  -3.776139  10.353611   0.302980 -46.639244  -0.000140 -21.928774  -0.000543   2.599289  -3.247266  -0.151291 -14.473732 -11.603276  -7.710439  32.523226   0.007636   0.010723  -6.419293 -17.884363   3.591811  -9.396963   0.001501   0.007924  -4.857691   1.324671   5.480592   3.419419  -0.001904   0.001997   6.773259   2.710555   0.601856 -23.785998   0.001140  -0.001323
 -2.389639   0.935757   4.147387  10.926901  20.607303  -2.095695  13.347391   1.550941  -2.001154   7.644109  -0.325019   0.214849  -4.231203  -2.165371  -0.912923   5.885637  -0.577895   4.268760  13.379076   8.585806  53.530719   0.000076  15.948595  -0.000206   4.139490   2.948057   4.870109   5.521345   3.323904  -3.893838  10.242814   0.315036 -46.695101  -0.000178 -21.800870  -0.000746   2.493487  -3.165029  -0.136917 -15.352508 -11.295638  -7.850355  32.772081   0.006500   0.008662  -6.820932 -17.766797   3.502949  -8.801054   0.000745   0.007556  -5.194506   1.402310   5.742705   4.036690  -0.002324   0.001747   7.060679   2.555388   0.429115 -24.798809   0.000550  -0.000057
 -2.390667   0.936337   4.149749  10.997347  20.493971  -2.191967  13.657075   1.549241  -1.916891   7.653552  -0.305657   0.340169  -4.232530  -2.224409  -0.881809   5.831903  -0.540838   4.245000  13.206173   8.394626  53.346778   0.000067  15.850735  -0.000239   4.069045   2.938599   4.835689   5.483487   3.184010  -4.014637  10.123986   0.310640 -46.752190  -0.000184 -21.688455  -0.000900   2.392571  -3.113346  -0.132934 -16.243474 -10.993663  -8.016932  32.958082   0.005469   0.006944  -7.197295 -17.656493   3.420680  -8.255474   0.000051   0.006978  -5.477200   1.486055   5.984291   4.629813  -0.002640   0.001490   7.290053   2.416872   0.247468 -25.724342   0.000031   0.000751
 -2.391738   0.936753   4.152223  11.040132  20.385597  -2.260574  13.961751   1.528044  -1.836134   7.669403  -0.304847   0.462210  -4.230789  -2.280160  -0.851241   5.777642  -0.502033   4.228531  13.040121   8.219973  53.176590   0.000034  15.761052  -0.000273   4.000720   2.938323   4.798189   5.433799   3.034918  -4.132322  10.000264   0.294202 -46.806496  -0.000166 -21.589554  -0.000995   2.296295  -3.093398  -0.132408 -17.130858 -10.699109  -8.194846  33.103236   0.004567   0.005558  -7.549208 -17.553110   3.344463  -7.755251  -0.000552   0.006371  -5.708520   1.567385   6.211407   5.196244  -0.002878   0.001284   7.474676   2.285195   0.068442 -26.580218  -0.000324   0.001265
 -2.392870   0.937029   4.154840  11.058194  20.288495  -2.304996  14.256367   1.490569  -1.759043   7.689035  -0.320685   0.581871  -4.227209  -2.332650  -0.821897   5.726502  -0.465083   4.220977  12.883533   8.058958  53.022007  -0.000014  15.677843  -0.000305   3.934841   2.942125   4.766944   5.375694   2.881043  -4.244150   9.874352   0.269219 -46.856410  -0.000133 -21.502157  -0.001037   2.204337  -3.099694  -0.130875 -18.004397 -10.413029  -8.375127  33.218310   0.003791   0.004451  -7.878040 -17.456182   3.273816  -7.296725  -0.001061   0.005792  -5.892793   1.643096   6.427416   5.738463  -0.003062   0.001134   7.625293   2.156662  -0.104169 -27.384429  -0.000520   0.001592
 -2.394073   0.937184   4.157619  11.054183  20.203858  -2.327291  14.537564   1.440369  -1.685754   7.710317  -0.350279   0.698944  -4.222684  -2.381960  -0.794115   5.680090  -0.431662   4.222008  12.737452   7.909576  52.882878  -0.000067  15.600029  -0.000332   3.871595   2.946402   4.745592   5.312037   2.725870  -4.349178   9.748477   0.238394 -46.901613  -0.000093 -21.424510  -0.001036   2.116428  -3.126377  -0.126538 -18.857117 -10.136355  -8.552371  33.309990   0.003129   0.003568  -8.185211 -17.365300   3.208308  -6.876563  -0.001479   0.005255  -6.034297   1.712397   6.634134   6.259801  -0.003208   0.001030   7.750512   2.030072  -0.268534 -28.152422  -0.000582   0.001807
 -2.395336   0.937074   4.160282  11.083472  20.015137  -2.419483  14.849246   1.438199  -1.557698   7.633093  -0.363393   0.828332  -4.199920  -2.399970  -0.782884   5.580753  -0.392515   4.299716  12.503797   7.650723  52.600023  -0.000035  15.401148  -0.000854   3.787202   2.954650   4.788862   5.211634   2.545223  -4.479200   9.637770   0.209941 -46.939060   0.000024 -21.222432  -0.001391   2.032556  -3.171092  -0.178082 -19.665925  -9.831744  -8.624281  32.831364   0.002137   0.002920  -8.484640 -17.235322   3.106955  -6.406632  -0.002405   0.004956  -6.363039   1.813055   6.920520   7.127944  -0.003910   0.000708   7.565521   1.950024  -0.451507 -28.738373  -0.000620   0.001806
 -2.396606   0.936744   4.162977  11.083198  19.777263  -2.466142  15.172487   1.436001  -1.456183   7.564009  -0.373281   0.946630  -4.178385  -2.416091  -0.770552   5.466901  -0.335821   4.368431  12.268169   7.417420  52.315876  -0.000024  15.216313  -0.001237   3.702451   2.941376   4.772774   5.107064   2.359292  -4.601741   9.525647   0.176059 -46.969168   0.000161 -21.032406  -0.001683   1.952035  -3.185548  -0.230938 -20.494548  -9.527701  -8.728372  32.255028   0.001384   0.002719  -8.769949 -17.111264   3.012897  -5.975442  -0.003204   0.004403  -6.655124   1.943103   7.176669   8.014930  -0.004516   0.000296   7.310017   1.904723  -0.660309 -29.252389  -0.000696   0.001651
